<svg width="65" height="65" viewBox="0 0 65 65" fill="none" xmlns="http://www.w3.org/2000/svg">
<g clip-path="url(#clip0)">
<path d="M42.0921 25.0556L43.9406 28.6028L51.0351 24.9058L49.1866 21.3586L42.0921 25.0556ZM44.6541 38.6278C47.013 38.9998 50.0989 39.5117 52.5387 39.9091C52.7583 38.5994 52.9687 37.272 53.1883 35.9622C50.7484 35.5648 47.6626 35.0529 45.2944 34.6631C45.0841 35.9906 44.8737 37.3181 44.6541 38.6278ZM41.3578 13.2598C40.1585 12.6895 38.95 12.1014 37.7507 11.5311C36.6787 13.7586 35.3305 16.5811 34.2933 18.7454C35.4926 19.3157 36.7011 19.9038 37.9004 20.4741C38.9376 18.3098 40.2951 15.505 41.3578 13.2598ZM15.4128 34.4479C13.4618 35.4645 12.6974 37.8926 13.714 39.8436L15.5625 43.3909C16.5792 45.3419 19.0073 46.1063 20.9583 45.0896L22.7319 44.1654L26.4289 51.2599L29.9762 49.4114L26.2792 42.3169L28.0528 41.3926L39.6937 42.0922L28.6027 20.8087L22.5073 30.7509L15.4128 34.4479ZM38.5823 29.1398C37.353 26.7809 35.2152 25.1886 32.8256 24.5846L39.0088 36.4501C39.8919 34.1632 39.8115 31.4988 38.5823 29.1398Z" fill="#FE654F"/>
</g>
<defs>
<clipPath id="clip0">
<rect width="48" height="48" fill="white" transform="translate(0 22.1821) rotate(-27.5244)"/>
</clipPath>
</defs>
</svg>
